<?xml version="1.0" standalone="no"?>
<!DOCTYPE svg PUBLIC "-//W3C//DTD SVG 1.1//EN" "http://www.w3.org/Graphics/SVG/1.1/DTD/svg11.dtd">
<svg viewBox="0 0 1024 1024" version="1.1" xmlns="http://www.w3.org/2000/svg" xmlns:xlink="http://www.w3.org/1999/xlink">
  <path d="M343.04 562.176c-20.48 0-36.864 16.384-36.864 36.864s16.384 36.864 36.864 36.864h178.688V716.8c0 14.336 16.896 21.504 27.136 11.776l164.352-117.76c6.656-6.144 6.656-16.896 0-23.04l-164.352-117.76c-10.24-9.728-27.136-2.56-27.136 11.776v80.384H343.04z" />
  <path d="M956.928 252.928h-299.52L486.4 81.408c-12.8-12.8-29.696-19.968-47.104-19.968H93.184C41.984 61.952 0 103.936 0 155.136v713.728c0 51.2 41.984 93.184 93.184 93.184h837.632c51.2 0 93.184-41.984 93.184-93.696V320c0-36.864-30.208-67.072-67.072-67.072z m-33.28 100.864v507.392H100.864V162.816H424.96l172.032 171.52c12.8 12.8 29.696 19.968 47.104 19.968h279.552z" />
</svg>
